<svg xmlns="http://www.w3.org/2000/svg" width="512" height="512" viewBox="0 0 512 512">
  <defs>
    <radialGradient id="g" cx="50%" cy="40%" r="70%">
      <stop offset="0%" stop-color="#22d3ee"/>
      <stop offset="55%" stop-color="#7c3aed"/>
      <stop offset="100%" stop-color="#050510"/>
    </radialGradient>
  </defs>
  <rect width="512" height="512" rx="96" fill="url(#g)"/>
  <path d="M256 98c72 0 130 58 130 130 0 74-58 164-130 186-72-22-130-112-130-186 0-72 58-130 130-130Z" fill="rgba(0,0,0,0.25)"/>
  <path d="M256 140c50 0 90 40 90 90 0 51-40 115-90 130-50-15-90-79-90-130 0-50 40-90 90-90Z" fill="rgba(255,255,255,0.18)"/>
  <circle cx="256" cy="230" r="38" fill="#e2e8f0" opacity="0.85"/>
</svg>

